<?xml version="1.0" standalone="no"?>
<!DOCTYPE svg PUBLIC "-//W3C//DTD SVG 20010904//EN"
 "http://www.w3.org/TR/2001/REC-SVG-20010904/DTD/svg10.dtd">
<svg version="1.0" xmlns="http://www.w3.org/2000/svg"
 width="160.000000pt" height="91.000000pt" viewBox="0 0 160.000000 91.000000"
 preserveAspectRatio="xMidYMid meet">

<g transform="translate(0.000000,91.000000) scale(0.100000,-0.100000)"
fill="#000000" stroke="none">
<path d="M500 705 c0 -8 5 -15 10 -15 6 0 10 -25 10 -55 0 -30 -4 -55 -10 -55
-5 0 -10 -7 -10 -15 0 -10 11 -15 35 -15 24 0 35 5 35 15 0 8 -4 15 -10 15 -5
0 -10 25 -10 55 0 30 5 55 10 55 6 0 10 7 10 15 0 10 -11 15 -35 15 -24 0 -35
-5 -35 -15z"/>
<path d="M616 699 c-21 -16 -26 -29 -26 -64 0 -35 5 -48 26 -64 15 -12 35 -21
45 -21 22 0 69 21 69 31 0 12 -29 19 -35 9 -9 -14 -49 -12 -63 2 -16 16 -16
70 0 86 14 14 54 16 63 2 3 -5 13 -6 22 -3 14 5 13 9 -7 25 -29 24 -61 23 -94
-3z"/>
<path d="M760 635 c0 -68 3 -85 15 -85 10 0 15 16 17 61 3 69 22 94 56 73 12
-8 18 -27 20 -73 4 -75 22 -82 22 -8 0 63 16 90 51 85 22 -3 24 -7 27 -70 2
-52 6 -68 17 -68 18 0 21 93 5 134 -12 33 -52 43 -84 23 -21 -14 -25 -14 -40
1 -13 14 -21 14 -46 5 -17 -6 -30 -7 -30 -2 0 5 -7 9 -15 9 -12 0 -15 -16 -15
-85z"/>
<path d="M1055 695 c-70 -69 19 -188 95 -127 20 16 21 20 7 25 -9 3 -19 2 -22
-3 -9 -14 -49 -12 -63 2 -16 16 -16 70 0 86 14 14 54 16 63 2 3 -5 13 -6 22
-3 14 5 13 9 -7 25 -31 25 -66 23 -95 -7z"/>
<path d="M706 444 c-12 -31 3 -34 22 -4 10 16 10 20 -2 20 -8 0 -17 -7 -20
-16z"/>
<path d="M568 333 c-2 -55 -6 -68 -20 -71 -11 -2 -18 3 -18 12 0 9 -8 16 -20
16 -14 0 -18 -5 -13 -17 16 -45 57 -58 87 -27 22 21 23 154 1 154 -11 0 -15
-16 -17 -67z"/>
<path d="M630 335 c0 -52 4 -69 20 -85 22 -22 42 -25 71 -10 13 7 19 7 19 0 0
-5 7 -10 15 -10 12 0 15 16 15 85 0 68 -3 85 -15 85 -10 0 -15 -16 -17 -61 -3
-69 -22 -94 -55 -73 -13 8 -19 27 -21 73 -2 45 -7 61 -17 61 -12 0 -15 -15
-15 -65z"/>
<path d="M800 315 c0 -69 3 -85 15 -85 11 0 15 13 15 53 0 63 16 90 51 85 22
-3 24 -7 27 -70 2 -52 6 -68 17 -68 12 0 15 15 15 65 0 52 -4 69 -20 85 -23
23 -50 26 -69 8 -11 -10 -14 -10 -18 0 -3 6 -11 12 -19 12 -11 0 -14 -18 -14
-85z"/>
<path d="M980 315 c0 -50 4 -85 10 -85 6 0 10 35 10 85 0 50 -4 85 -10 85 -6
0 -10 -35 -10 -85z"/>
<path d="M1055 375 c-65 -64 2 -169 85 -135 43 18 60 67 39 113 -22 49 -86 61
-124 22z m97 -30 c17 -38 0 -79 -35 -83 -37 -5 -57 14 -57 52 0 39 15 56 52
56 21 0 32 -7 40 -25z"/>
<path d="M1220 315 c0 -69 3 -85 15 -85 10 0 15 11 15 35 0 28 4 35 19 35 11
0 28 -15 41 -35 12 -19 28 -35 36 -35 16 0 10 15 -19 54 -13 18 -12 22 6 36
15 12 18 23 14 42 -7 28 -30 38 -89 38 l-38 0 0 -85z m105 35 c0 -10 -12 -16
-37 -18 -33 -3 -38 0 -38 18 0 18 5 21 38 18 25 -2 37 -8 37 -18z"/>
</g>
</svg>
